<svg width="347" height="87" viewBox="0 0 22 26" fill="none" xmlns="http://www.w3.org/2000/svg">
<path d="M10.7991 2C18.08 12.2028 19.2935 23.8631 10.7991 18.7617C2.30481 23.8631 3.51827 12.2028 10.7991 2Z" stroke="#1f3bdf" stroke-width="2"/>
<path d="M10.9421 2C5.86674 6.1297 -3.03592 9.28771 3.05451 12.2028" stroke="#1f3bdf" stroke-width="2"/>
<path d="M10.6562 2C15.9146 6.1297 24.8538 9.28771 18.5438 12.2028" stroke="#1f3bdf" stroke-width="2"/>
<path d="M3.86865 21.8311H2.72607V25H2.25977V21.8311H1.11963V21.4453H3.86865V21.8311ZM6.40527 23.3569H4.86475V24.6167H6.6543V25H4.396V21.4453H6.62988V21.8311H4.86475V22.9736H6.40527V23.3569ZM9.96973 25H9.49854L7.70898 22.2607V25H7.23779V21.4453H7.70898L9.50342 24.1968V21.4453H9.96973V25ZM12.8091 24.0723H11.3198L10.9854 25H10.502L11.8594 21.4453H12.2695L13.6294 25H13.1484L12.8091 24.0723ZM11.4614 23.6865H12.6699L12.0645 22.0239L11.4614 23.6865ZM16.8398 25H16.3687L14.5791 22.2607V25H14.1079V21.4453H14.5791L16.3735 24.1968V21.4453H16.8398V25ZM20.0552 21.8311H18.9126V25H18.4463V21.8311H17.3062V21.4453H20.0552V21.8311Z" fill="#1f3bdf"/>
</svg>
